<svg xmlns="http://www.w3.org/2000/svg" viewBox="0 0 64 64">
  <defs>
    <linearGradient id="bg" x1="0" y1="0" x2="1" y2="1">
      <stop stop-color="#53e0b4"/>
      <stop offset="1" stop-color="#5da9ff"/>
    </linearGradient>
  </defs>
  <rect width="64" height="64" rx="14" fill="#0b1020"/>
  <circle cx="32" cy="32" r="23" fill="url(#bg)"/>
  <path d="M10 32h44M32 9c7 7 10 15 10 23S39 48 32 55M32 9C25 16 22 24 22 32s3 16 10 23M14 20h36M14 44h36" fill="none" stroke="#0b1020" stroke-width="3" stroke-linecap="round"/>
  <circle cx="45" cy="45" r="13" fill="#eef3ff" stroke="#0b1020" stroke-width="2"/>
  <path d="m45 37 5 4-2 6h-6l-2-6Zm-9 3 4 1m10 0 4-1m-6 7 2 5m-8-5-2 5" fill="#0b1020" stroke="#0b1020" stroke-width="2" stroke-linecap="round" stroke-linejoin="round"/>
</svg>
